<svg xmlns="http://www.w3.org/2000/svg" width="375.5" height="189.222" viewBox="0 0 375.5 189.222"><g transform="translate(375.5 -0.5) rotate(90)"><rect width="188" height="375" transform="translate(0.5 0.5)" fill="#ececf4"/><path d="M31.5,0H63a0,0,0,0,1,0,0V63a0,0,0,0,1,0,0H31.5A31.5,31.5,0,0,1,0,31.5v0A31.5,31.5,0,0,1,31.5,0Z" transform="translate(63.722 125)" fill="#111747"/><rect width="63" height="63" transform="translate(126.722 125)" fill="#111747"/><path d="M31.5,0h0A31.5,31.5,0,0,1,63,31.5V63a0,0,0,0,1,0,0H.189A.189.189,0,0,1,0,62.811V31.5A31.5,31.5,0,0,1,31.5,0Z" transform="translate(126.722 63)" fill="#ff87a2"/><path d="M31.5,0h0A31.5,31.5,0,0,1,63,31.5V63a0,0,0,0,1,0,0H0a0,0,0,0,1,0,0V31.5A31.5,31.5,0,0,1,31.5,0Z" transform="translate(126.722 312)" fill="#ff87a2"/><path d="M1.7,0H63a0,0,0,0,1,0,0V31.5A31.5,31.5,0,0,1,31.5,63h0A31.5,31.5,0,0,1,0,31.5V1.7A1.7,1.7,0,0,1,1.7,0Z" transform="translate(63.722 187)" fill="#2cb9b0"/><path d="M63,31H0C0,13.879,14.1,0,31.5,0S63,13.879,63,31Z" transform="translate(126.722 156)" fill="#fe5e33"/><rect width="63" height="63" transform="translate(126.722 187)" fill="#ffc641"/><path d="M0,0H63a0,0,0,0,1,0,0V31.5A31.5,31.5,0,0,1,31.5,63h0A31.5,31.5,0,0,1,0,31.5V0A0,0,0,0,1,0,0Z" transform="translate(126.722 249)" fill="#ffc641"/><rect width="63" height="63" transform="translate(0.5 312.5)" fill="#111747"/><rect width="63" height="63" transform="translate(0.722 63)" fill="#2cb9b0"/><rect width="63" height="63" transform="translate(0.722 187)" fill="#fe5e33"/><rect width="63" height="63" rx="31.5" transform="translate(0.722 125)" fill="#ff87a2"/><path d="M0,0H63c0,17.121-14.1,31-31.5,31S0,17.121,0,0Z" transform="translate(63.722 125)" fill="#ff87a2"/><rect width="63" height="63" transform="translate(63.722 63)" fill="#ff87a2"/><path d="M63,31H0C0,13.879,14.1,0,31.5,0S63,13.879,63,31Z" transform="translate(63.722 32)" fill="#ff87a2"/><path d="M31,0A31,31,0,0,1,0,31,31,31,0,0,1,31,0Z" transform="translate(95.722)" fill="#06818e"/><path d="M0,31A31,31,0,0,1,31,0,31,31,0,0,1,0,31Z" transform="translate(63.722 32)" fill="#111747"/><path d="M15.5,55A31.878,31.878,0,0,1,0,27.5,31.878,31.878,0,0,1,15.5,0,31.878,31.878,0,0,1,31,27.5,31.878,31.878,0,0,1,15.5,55Z" transform="translate(95.722 67)" fill="#fff"/><path d="M31,0A31,31,0,0,1,0,31,31,31,0,0,1,31,0Z" transform="translate(32.722 63)" fill="#ffc641"/><path d="M0,63V0C17.121,0,31,14.1,31,31.5S17.121,63,0,63Z" transform="translate(63.722 187)" fill="#fe5e33"/><path d="M0,31A31,31,0,0,1,31,0,31,31,0,0,1,0,31Z" transform="translate(0.722 219)" fill="#2cb9b0"/><rect width="63" height="63" rx="31.5" transform="translate(0.722)" fill="#06818e"/><path d="M0,31A31,31,0,0,1,31,0,31,31,0,0,1,0,31Z" transform="translate(0.722 93)" fill="#06818e"/><path d="M47.25,55h0a31.86,31.86,0,0,1,0-55,31.86,31.86,0,0,1,0,55Zm-31.5,0h0a31.86,31.86,0,0,1,0-55A31.8,31.8,0,0,1,27.156,11.4,31.91,31.91,0,0,1,31.5,27.5a31.908,31.908,0,0,1-4.344,16.1A31.8,31.8,0,0,1,15.75,55Z" transform="translate(0.722 253)" fill="#2cb9b0"/><rect width="63" height="63" rx="31.5" transform="translate(126.722 249)" fill="#2cb9b0"/><rect width="63" height="63" rx="31.5" transform="translate(94.722 219)" fill="#fff"/><rect width="63" height="63" rx="31.5" transform="translate(126.722 187)" fill="#fe5e33"/><path d="M15.5,0A15.5,15.5,0,1,1,0,15.5,15.5,15.5,0,0,1,15.5,0Z" transform="translate(142.722 141)" fill="#ffc641"/><path d="M15.5,0A15.5,15.5,0,1,1,0,15.5,15.5,15.5,0,0,1,15.5,0Z" transform="translate(16.722 141)" fill="#111747"/><path d="M15.5,0A15.5,15.5,0,1,1,0,15.5,15.5,15.5,0,0,1,15.5,0Z" transform="translate(79.722 265)" fill="#2cb9b0"/><path d="M15.5,0A15.5,15.5,0,1,1,0,15.5,15.5,15.5,0,0,1,15.5,0Z" transform="translate(16.722 265)" fill="#fe5e33"/><path d="M15.5,0A15.5,15.5,0,1,1,0,15.5,15.5,15.5,0,0,1,15.5,0Z" transform="translate(79.722 203)" fill="#111747"/><path d="M0,0H63a0,0,0,0,1,0,0V31.5A31.5,31.5,0,0,1,31.5,63h0A31.5,31.5,0,0,1,0,31.5V0A0,0,0,0,1,0,0Z" transform="translate(126.722)" fill="#06818e"/><path d="M0,31A31,31,0,0,1,31,0,31,31,0,0,1,0,31Z" transform="translate(156.722)" fill="#fe5e33"/><rect width="63" height="63" transform="translate(63.5 312.5)" fill="#fe5e33"/><path d="M63,31H0C0,13.879,14.1,0,31.5,0S63,13.879,63,31Z" transform="translate(63.722 282)" fill="#fe5e33"/><path d="M0,31A31,31,0,0,1,31,0,31,31,0,0,1,0,31Z" transform="translate(32.722 312)" fill="#2cb9b0"/><path d="M63,31.5h0a31.3,31.3,0,0,1-12.26-2.475,31.4,31.4,0,0,1-10.013-6.751,31.4,31.4,0,0,1-6.751-10.013A31.3,31.3,0,0,1,31.5,0,31.474,31.474,0,0,1,63,31.5Zm-63,0H0A31.474,31.474,0,0,1,31.5,0a31.3,31.3,0,0,1-2.475,12.261,31.4,31.4,0,0,1-6.751,10.013,31.4,31.4,0,0,1-10.013,6.751A31.3,31.3,0,0,1,0,31.5Z" transform="translate(0.722 0.5)" fill="#111747"/><path d="M63,63h0A31.474,31.474,0,0,1,31.5,31.5a31.3,31.3,0,0,1-2.475,12.261,31.4,31.4,0,0,1-6.751,10.013,31.4,31.4,0,0,1-10.013,6.751A31.3,31.3,0,0,1,0,63H0A31.474,31.474,0,0,1,31.5,31.5h0a31.3,31.3,0,0,1-12.26-2.475A31.4,31.4,0,0,1,9.226,22.274,31.4,31.4,0,0,1,2.475,12.261,31.3,31.3,0,0,1,0,0,31.3,31.3,0,0,1,12.261,2.475,31.4,31.4,0,0,1,22.274,9.226a31.4,31.4,0,0,1,6.751,10.013A31.3,31.3,0,0,1,31.5,31.5,31.474,31.474,0,0,1,63,0a31.3,31.3,0,0,1-2.475,12.261,31.4,31.4,0,0,1-6.751,10.013,31.4,31.4,0,0,1-10.013,6.751A31.3,31.3,0,0,1,31.5,31.5h0A31.474,31.474,0,0,1,63,63Z" transform="translate(126.722 219)" fill="#2cb9b0"/></g></svg>